<?xml version="1.0" encoding="utf-8"?><!-- Uploaded to: SVG Repo, www.svgrepo.com, Generator: SVG Repo
Mixer Tools -->
<svg version="1.1" id="designs" xmlns="http://www.w3.org/2000/svg"
  xmlns:xlink="http://www.w3.org/1999/xlink"
  width="800px" height="800px" viewBox="0 0 32 32" xml:space="preserve">
<style type="text/css">
	.scienceandfiction_een{fill:#2B4099;}
	.scienceandfiction_twee{fill:#CC2954;}
</style>
<path class="scienceandfiction_een" d="M22,9l-2-3h-7l-2,3h-1V7H4v2H3v18h26V9H22z M8,8h1v1H8V8z M5,8h2v1H5V8z M28,26H4V12h18v2h6
	V26z M23,13v-2H4v-1h7.535l2-3h5.93l2,3H28v3H23z"/>
<path class="scienceandfiction_twee" d="M16,14c2.757,0,5,2.243,5,5s-2.243,5-5,5s-5-2.243-5-5S13.243,14,16,14z M16,13
	c-3.314,0-6,2.686-6,6s2.686,6,6,6s6-2.686,6-6S19.314,13,16,13L16,13z M27,11h-3v1h3V11L27,11z M16,16c1.654,0,3,1.346,3,3
	s-1.346,3-3,3s-3-1.346-3-3S14.346,16,16,16z M16,15c-2.209,0-4,1.791-4,4s1.791,4,4,4s4-1.791,4-4S18.209,15,16,15L16,15z M15,8h-1
	v1h1V8L15,8z M17,8h-1v1h1V8L17,8z M19,8h-1v1h1V8L19,8z M16,9h-1v1h1V9L16,9z M18,9h-1v1h1V9L18,9z M7.5,19
	C7.776,19,8,19.224,8,19.5S7.776,20,7.5,20S7,19.776,7,19.5S7.224,19,7.5,19z M7.5,18C6.672,18,6,18.672,6,19.5S6.672,21,7.5,21
	S9,20.328,9,19.5S8.328,18,7.5,18L7.5,18z"/>
</svg>